<svg xmlns="http://www.w3.org/2000/svg" viewBox="0 0 200 200" width="512" height="512">
  <defs>
    <linearGradient id="colorPrimary">
      <stop offset="0%" stop-color="#933A5B" stop-opacity="1.0" />
      <stop offset="100%" stop-color="#933A5B" stop-opacity="1.0" />
    </linearGradient>
    <linearGradient id="gradient1" x1="75%" y1="0%" x2="25%" y2="100%">
      <stop offset="0%" stop-color="#ff6f59" stop-opacity="1"/>
      <stop offset="100%" stop-color="#254441" stop-opacity="1"/>
    </linearGradient>
    <linearGradient id="gradient2" x1="75%" y1="0%" x2="25%" y2="100%">
      <stop offset="0%" stop-color="#254441" stop-opacity="1"/>
      <stop offset="100%" stop-color="#ff6f59" stop-opacity="1"/>
    </linearGradient>
    <mask id="cut-text">
      <rect width="100%" height="100%" fill="white"/>
      <text x="100" y="100"
            dy="-0.03em" font-family="Verdana, sans-serif" font-size="150" font-weight="bold" text-anchor="middle"
            dominant-baseline="central">
        S
      </text>
    </mask>
    <polygon id="shape_triangle1" points="101,101 25,50 50,15" fill="url(#gradient1)"/>
    <polygon id="shape_triangle2" points="101,101 50,15 65,6" fill="url(#gradient2)"/>
  </defs>
  <g>
    <use href="#shape_triangle1"/>
    <use href="#shape_triangle1" transform="rotate(30, 100, 100)"/>
    <use href="#shape_triangle1" transform="rotate(60, 100, 100)"/>
    <use href="#shape_triangle1" transform="rotate(90, 100, 100)"/>
    <use href="#shape_triangle1" transform="rotate(120, 100, 100)"/>
    <use href="#shape_triangle1" transform="rotate(150, 100, 100)"/>
    <use href="#shape_triangle1" transform="rotate(180, 100, 100)"/>
    <use href="#shape_triangle1" transform="rotate(210, 100, 100)"/>
    <use href="#shape_triangle1" transform="rotate(240, 100, 100)"/>
    <use href="#shape_triangle1" transform="rotate(270, 100, 100)"/>
    <use href="#shape_triangle1" transform="rotate(300, 100, 100)"/>
    <use href="#shape_triangle1" transform="rotate(330, 100, 100)"/>
    <use href="#shape_triangle2"/>
    <use href="#shape_triangle2" transform="rotate(30, 100, 100)"/>
    <use href="#shape_triangle2" transform="rotate(60, 100, 100)"/>
    <use href="#shape_triangle2" transform="rotate(90, 100, 100)"/>
    <use href="#shape_triangle2" transform="rotate(120, 100, 100)"/>
    <use href="#shape_triangle2" transform="rotate(150, 100, 100)"/>
    <use href="#shape_triangle2" transform="rotate(180, 100, 100)"/>
    <use href="#shape_triangle2" transform="rotate(210, 100, 100)"/>
    <use href="#shape_triangle2" transform="rotate(240, 100, 100)"/>
    <use href="#shape_triangle2" transform="rotate(270, 100, 100)"/>
    <use href="#shape_triangle2" transform="rotate(300, 100, 100)"/>
    <use href="#shape_triangle2" transform="rotate(330, 100, 100)"/>
  </g>
  <circle cx="100" cy="100" r="79" fill="#fff"/>
  <circle cx="100" cy="100" r="80" fill="url(#colorPrimary)"
          mask="url(#cut-text)"/> <!-- Reverted the color to its original state -->
</svg>