<svg xmlns="http://www.w3.org/2000/svg" viewBox="0 0 50 50">
  <defs>
    <linearGradient id="leafyGreenGradient" x1="0%" y1="0%" x2="100%" y2="0%">
      <stop offset="0%" style="stop-color:darkgreen; stop-opacity:1"/>
      <stop offset="50%" style="stop-color:green; stop-opacity:1"/>
      <stop offset="100%" style="stop-color:darkgreen; stop-opacity:1"/>
    </linearGradient>
  </defs>
  <g transform="rotate(0, 25, 25)">
    <path fill="url(#leafyGreenGradient)" stroke="darkgreen" d="
        M 25,0
        q 10,10 10,20
        q 0,10 -10,10
        q -10,0 -10,-10
        q 0,-10 10,-20
    "/>
  </g>
  <g transform="rotate(72, 25, 25)">
    <path fill="url(#leafyGreenGradient)" stroke="darkgreen" d="
        M 25,0
        q 10,10 10,20
        q 0,10 -10,10
        q -10,0 -10,-10
        q 0,-10 10,-20
    "/>
  </g>
  <g transform="rotate(144, 25, 25)">
    <path fill="url(#leafyGreenGradient)" stroke="darkgreen" d="
        M 25,0
        q 10,10 10,20
        q 0,10 -10,10
        q -10,0 -10,-10
        q 0,-10 10,-20
    "/>
  </g>
  <g transform="rotate(216, 25, 25)">
    <path fill="url(#leafyGreenGradient)" stroke="darkgreen" d="
        M 25,0
        q 10,10 10,20
        q 0,10 -10,10
        q -10,0 -10,-10
        q 0,-10 10,-20
    "/>
  </g>
  <g transform="rotate(288, 25, 25)">
    <path fill="url(#leafyGreenGradient)" stroke="darkgreen" d="
        M 25,0
        q 10,10 10,20
        q 0,10 -10,10
        q -10,0 -10,-10
        q 0,-10 10,-20
    "/>
  </g>
</svg>